<?xml version="1.0" standalone="no"?>
<!DOCTYPE svg PUBLIC "-//W3C//DTD SVG 20010904//EN"
 "http://www.w3.org/TR/2001/REC-SVG-20010904/DTD/svg10.dtd">
<svg version="1.0" xmlns="http://www.w3.org/2000/svg"
 width="509.000000pt" height="509.000000pt" viewBox="0 0 509.000000 509.000000"
 preserveAspectRatio="xMidYMid meet">
<metadata>
Created by potrace 1.14, written by Peter Selinger 2001-2017
</metadata>
<g transform="translate(0.000000,509.000000) scale(0.100000,-0.100000)"
fill="#000000" stroke="none">
<path d="M2300 4910 c-25 -4 -67 -10 -95 -14 -27 -3 -62 -8 -76 -11 -14 -3
-42 -6 -62 -7 -20 -2 -37 -6 -37 -9 0 -4 -17 -9 -37 -12 -42 -7 -78 -15 -78
-17 0 -1 -7 -3 -15 -5 -110 -22 -560 -219 -560 -245 0 -6 -4 -9 -9 -5 -5 3
-15 0 -23 -7 -25 -23 -137 -98 -147 -98 -5 0 -11 -3 -13 -8 -1 -4 -28 -25 -58
-47 -79 -57 -111 -86 -238 -213 -101 -101 -209 -226 -252 -292 -8 -12 -21 -28
-28 -36 -6 -7 -12 -15 -12 -18 0 -5 -41 -69 -57 -91 -5 -5 -24 -39 -42 -75
-19 -36 -43 -80 -53 -98 -10 -18 -18 -39 -18 -47 0 -8 -4 -15 -10 -15 -5 0
-10 -5 -10 -10 0 -6 -9 -32 -21 -58 -24 -54 -29 -65 -59 -145 -13 -32 -20 -61
-16 -64 3 -4 0 -13 -7 -22 -12 -14 -28 -61 -42 -126 -2 -11 -9 -38 -14 -60 -5
-22 -12 -56 -15 -75 -3 -19 -8 -46 -11 -60 -3 -14 -8 -52 -10 -85 -2 -33 -5
-60 -6 -60 0 0 -2 -25 -4 -56 -1 -31 -6 -62 -9 -68 -4 -6 -2 -11 4 -11 7 0 8
-6 2 -17 -6 -14 -9 -198 -2 -198 1 0 3 -20 5 -45 6 -92 15 -174 19 -189 3 -9
7 -32 10 -51 3 -19 10 -50 15 -68 5 -18 10 -35 10 -37 5 -41 15 -85 20 -85 4
0 7 -9 8 -19 2 -22 55 -182 81 -246 19 -44 140 -289 173 -348 12 -20 24 -37
29 -37 4 0 13 -14 20 -30 7 -17 16 -30 21 -30 4 0 10 -8 13 -17 3 -10 16 -29
28 -43 13 -14 36 -43 52 -65 16 -22 40 -51 52 -65 56 -61 183 -188 224 -226
64 -58 228 -184 239 -184 5 0 11 -4 13 -8 4 -10 141 -102 178 -120 14 -6 32
-16 40 -21 16 -9 114 -56 200 -95 81 -36 190 -76 190 -69 0 3 6 1 13 -4 6 -6
37 -17 67 -26 64 -19 152 -44 162 -46 4 -1 13 -3 20 -5 30 -8 147 -27 189 -30
26 -2 51 -6 55 -8 24 -14 492 -15 523 -2 9 4 32 8 51 11 47 5 119 17 170 29
14 3 34 8 45 11 11 2 25 5 30 7 6 2 27 6 48 11 20 4 37 11 37 15 0 4 6 7 13 7
22 -2 107 25 107 34 0 5 3 8 8 7 12 -4 172 56 172 64 0 5 11 8 25 8 14 0 25 5
25 10 0 6 6 10 13 10 12 0 157 70 167 80 3 3 18 12 34 20 56 29 66 35 66 42 0
5 5 8 11 8 11 0 157 103 194 137 11 10 40 34 65 53 25 19 78 67 119 107 41 40
76 73 77 73 8 0 54 52 54 60 0 6 5 10 10 10 6 0 15 11 22 25 6 13 14 23 18 20
3 -2 15 10 25 28 10 18 28 44 39 58 12 14 28 36 36 49 8 12 27 40 42 61 16 21
28 41 28 44 0 3 8 15 18 26 11 10 25 32 33 47 8 15 16 29 20 32 14 13 98 188
92 194 -3 3 -1 6 5 6 7 0 12 4 12 9 0 5 7 25 15 45 8 20 14 37 13 39 -2 2 3
11 11 20 7 10 10 17 6 17 -4 0 -2 7 5 15 7 8 10 15 7 15 -2 0 6 37 20 82 14
46 27 94 29 108 6 35 10 53 17 70 9 22 29 140 30 178 1 12 4 22 7 22 3 0 7 15
9 33 1 17 4 48 7 67 9 64 16 389 9 407 -6 15 -12 75 -18 186 -1 9 -4 17 -7 17
-3 0 -7 14 -8 30 -1 17 -9 59 -18 93 -8 34 -17 71 -19 82 -7 31 -87 279 -93
290 -4 6 -7 15 -8 21 -1 6 -25 58 -54 115 -29 57 -58 114 -64 126 -6 13 -14
23 -18 23 -5 0 -8 5 -8 10 0 12 -95 157 -174 265 -72 100 -268 302 -361 372
-77 59 -175 131 -190 140 -167 101 -286 169 -358 202 -49 23 -90 41 -92 41 -2
0 -16 5 -32 12 -15 6 -30 12 -33 13 -3 1 -18 7 -33 13 -16 7 -34 12 -41 12 -6
0 -16 4 -21 9 -6 4 -32 14 -60 21 -27 7 -56 17 -62 23 -7 5 -13 7 -13 4 0 -3
-14 -2 -32 3 -29 9 -91 20 -128 24 -9 1 -20 4 -25 7 -6 3 -30 7 -55 8 -67 4
-84 6 -95 13 -14 8 -470 6 -525 -2z"/>
</g>
</svg>
