<?xml version="1.0" standalone="no"?>
<!DOCTYPE svg PUBLIC "-//W3C//DTD SVG 20010904//EN"
 "http://www.w3.org/TR/2001/REC-SVG-20010904/DTD/svg10.dtd">
<svg version="1.0" xmlns="http://www.w3.org/2000/svg"
 width="1181.000000pt" height="1181.000000pt" viewBox="0 0 1181.000000 1181.000000"
 preserveAspectRatio="xMidYMid meet">
<metadata>
Created by potrace 1.14, written by Peter Selinger 2001-2017
</metadata>
<g transform="translate(0.000000,1181.000000) scale(0.100000,-0.100000)"
fill="#000000" stroke="none">
<path d="M5720 10247 c0 -2 46 -51 103 -109 98 -100 177 -198 160 -198 -4 0
-30 7 -57 15 -100 30 -258 13 -320 -36 -30 -24 -26 -39 10 -39 14 0 23 4 20 9
-10 16 79 36 159 35 53 0 104 -8 152 -22 l72 -22 73 -141 c65 -126 73 -137 76
-109 2 22 -10 59 -37 117 -23 47 -41 89 -41 94 0 5 12 4 28 -2 22 -8 17 0 -28
44 -30 29 -73 79 -95 111 -44 65 -194 211 -243 239 -18 10 -32 16 -32 14z"/>
<path d="M6660 10084 c-36 -7 -94 -26 -129 -41 -74 -31 -208 -127 -267 -191
l-41 -44 -47 96 c-27 54 -50 95 -53 92 -3 -2 12 -46 33 -98 37 -92 41 -114 51
-257 5 -70 6 -73 19 -50 9 16 13 53 13 107 l-2 83 39 40 c92 94 238 134 464
127 209 -7 268 -33 343 -151 19 -29 56 -71 83 -93 46 -38 146 -84 182 -84 8 0
49 -20 91 -44 88 -51 153 -74 257 -90 41 -6 76 -16 77 -21 1 -5 -25 -15 -59
-21 -33 -6 -66 -14 -72 -18 -16 -10 -15 -31 2 -45 11 -9 14 -8 12 6 -1 16 8
18 71 17 67 -2 77 -5 130 -41 70 -48 184 -186 246 -298 96 -173 239 -530 263
-657 14 -76 92 -296 132 -374 11 -22 48 -76 81 -120 55 -72 61 -86 61 -128 0
-26 7 -111 16 -189 8 -78 13 -155 11 -172 -6 -36 -96 -227 -147 -310 -53 -87
-93 -191 -88 -232 4 -31 0 -35 -41 -59 -26 -15 -70 -49 -98 -77 -31 -30 -53
-45 -53 -36 0 8 16 95 36 194 28 140 36 202 35 279 -1 134 -11 166 -122 400
-40 85 -32 32 16 -110 45 -134 54 -188 22 -129 l-17 30 6 -55 c3 -30 7 -60 9
-66 5 -16 -15 -118 -25 -128 -5 -5 -6 30 -3 80 5 76 3 91 -11 103 -25 21 -41
-1 -54 -72 -7 -32 -19 -74 -28 -93 -19 -39 -111 -127 -125 -118 -5 3 -9 20 -9
38 0 33 -21 63 -37 53 -5 -3 -21 18 -36 48 -18 33 -69 93 -139 161 -60 60
-118 123 -129 139 -16 26 -19 27 -19 9 0 -24 16 -47 113 -157 69 -79 142 -185
134 -193 -8 -8 -162 53 -257 102 -106 54 -219 147 -273 226 -49 71 -89 181
-89 243 0 44 -2 47 -14 30 -19 -26 -17 -66 7 -154 28 -101 65 -160 162 -258
45 -46 78 -83 73 -83 -16 0 -172 41 -216 57 -119 44 -237 158 -306 298 l-38
76 12 72 c19 112 -16 412 -51 434 -6 4 -8 -4 -4 -23 4 -16 10 -67 13 -114 5
-73 4 -83 -7 -68 -10 13 -18 15 -29 8 -12 -7 -15 -33 -14 -132 1 -68 5 -135 9
-151 6 -21 2 -36 -16 -62 -13 -19 -27 -35 -30 -35 -3 0 3 25 13 56 10 31 17
58 15 60 -2 2 -24 -27 -50 -65 -55 -82 -198 -214 -288 -264 -91 -51 -201 -96
-299 -123 -129 -36 -135 -29 -25 29 163 85 265 161 297 222 11 19 10 19 -15 2
-138 -90 -374 -211 -489 -251 -93 -32 -150 -34 -178 -6 -36 36 -57 16 -23 -22
9 -10 14 -20 12 -22 -9 -10 -209 -27 -274 -24 l-70 3 60 23 c122 48 383 187
371 199 -1 2 -29 -8 -62 -21 -315 -129 -517 -191 -601 -182 -29 2 -57 8 -63
11 -6 4 44 34 111 66 159 78 244 145 289 231 20 37 44 218 29 218 -9 0 -26
-47 -34 -94 -24 -144 -140 -237 -450 -363 -118 -48 -196 -67 -368 -88 -123
-15 -129 -15 -171 4 -53 23 -153 90 -180 120 -18 20 -18 21 13 38 162 90 298
203 326 270 18 43 18 44 2 37 -7 -2 -21 -20 -32 -39 -10 -20 -37 -50 -59 -68
-73 -59 -267 -171 -361 -208 -33 -13 -67 -28 -75 -35 -28 -22 -166 -81 -218
-94 -29 -6 -54 -16 -57 -20 -7 -12 60 -22 103 -15 27 5 33 4 22 -4 -22 -16 2
-13 45 5 20 8 38 14 40 12 2 -2 -27 -35 -63 -74 -62 -66 -199 -181 -206 -173
-1 2 -12 53 -25 112 -12 59 -27 119 -33 132 -15 34 -48 43 -66 19 -19 -26 -12
-87 32 -318 32 -161 38 -215 23 -195 -79 105 -98 125 -159 168 -27 19 -48 42
-48 52 0 9 -29 74 -65 144 -36 69 -65 128 -65 130 0 3 7 5 15 5 23 0 19 30
-29 188 -61 202 -74 277 -56 305 8 12 36 65 63 117 38 75 45 96 32 98 -20 5
-20 5 20 73 18 32 39 76 45 97 23 76 -6 125 -30 52 -10 -31 -23 -46 -51 -61
-21 -10 -42 -19 -48 -19 -5 0 6 28 25 63 18 34 34 66 34 71 0 17 -32 -18 -63
-71 -49 -81 -57 -72 -57 63 0 112 1 120 51 267 27 84 67 184 88 222 122 223
148 266 199 334 50 65 63 77 102 87 62 16 146 55 215 99 32 20 68 41 79 45 19
8 18 9 -8 9 -16 1 -52 -12 -80 -28 -84 -48 -104 -49 -54 -4 84 77 182 153 196
153 8 0 54 23 102 50 118 68 186 90 279 91 65 1 137 12 121 19 -3 2 -41 8 -85
14 l-80 12 161 80 c106 53 215 98 320 132 223 72 274 82 422 82 195 -1 281
-36 434 -180 79 -73 86 -78 76 -49 -18 53 -153 180 -228 216 -101 49 -119 54
-218 64 -175 16 -358 -19 -643 -126 -145 -54 -328 -147 -484 -244 -33 -21 -96
-56 -140 -79 -93 -49 -171 -106 -272 -199 l-72 -66 -79 2 c-44 1 -105 8 -136
15 -44 11 -56 11 -56 1 0 -25 70 -42 175 -45 57 -1 59 -1 35 -15 -29 -17 -80
-20 -80 -4 0 5 -5 7 -11 3 -6 -3 -8 -17 -4 -31 5 -20 -2 -31 -38 -63 -69 -61
-211 -281 -255 -397 -78 -203 -86 -241 -88 -448 l-2 -189 -59 -16 c-46 -12
-58 -19 -58 -35 0 -26 58 -32 108 -11 38 15 47 13 47 -15 0 -14 -17 -23 -72
-39 -122 -36 -171 -54 -176 -67 -10 -32 53 -26 186 17 57 19 59 17 37 -37 -8
-19 -15 -56 -15 -82 0 -25 -12 -81 -27 -125 -25 -74 -26 -83 -15 -155 15 -106
37 -166 112 -316 49 -99 70 -131 86 -133 12 -2 26 -14 32 -28 11 -22 10 -24
-16 -24 -55 0 -147 -30 -173 -58 -39 -39 -81 -170 -87 -268 -5 -95 5 -159 60
-384 35 -145 48 -182 109 -300 137 -269 308 -411 586 -491 80 -23 82 -24 88
-59 6 -38 24 -70 99 -182 113 -167 330 -383 500 -497 52 -35 126 -94 126 -100
0 -4 -30 -24 -67 -45 -38 -21 -107 -63 -154 -92 -47 -30 -89 -54 -92 -54 -4 0
-42 24 -85 53 -132 90 -348 145 -488 126 -135 -18 -261 -120 -332 -269 -64
-134 -91 -275 -92 -471 l0 -106 -72 -12 c-40 -6 -134 -18 -208 -26 -238 -27
-481 -73 -715 -136 -62 -17 -178 -44 -361 -84 -92 -20 -149 -51 -218 -119 -63
-61 -343 -320 -446 -412 -253 -226 -394 -371 -453 -466 -25 -40 -21 -42 21
-10 20 16 56 42 79 59 24 16 76 61 116 99 40 38 123 112 183 164 107 94 133
117 329 296 55 50 120 108 145 130 25 21 56 52 70 68 52 60 146 107 240 121
25 4 106 22 180 42 392 101 577 140 800 168 120 15 267 40 301 50 14 5 19 -9
29 -77 18 -124 74 -343 121 -470 50 -139 171 -393 228 -477 22 -34 41 -65 41
-68 0 -4 26 -40 57 -82 185 -248 348 -396 538 -491 116 -57 170 -72 280 -73
197 -3 358 119 441 334 15 41 29 76 31 78 2 3 38 -29 81 -71 90 -88 142 -120
232 -143 36 -8 112 -36 170 -60 219 -92 258 -105 292 -98 40 8 71 26 223 129
105 72 175 114 188 114 2 0 10 -19 17 -42 20 -68 48 -117 98 -170 92 -98 193
-138 351 -138 362 0 793 248 1203 690 137 149 189 214 302 385 143 215 230
388 297 595 15 47 33 86 41 88 7 1 110 -20 227 -48 117 -27 263 -57 325 -65
61 -9 158 -23 216 -31 180 -25 252 -58 303 -137 54 -83 112 -142 205 -209 48
-34 125 -97 172 -139 175 -159 440 -351 625 -454 28 -15 62 -36 78 -47 43 -30
32 -11 -20 36 -27 24 -79 71 -118 106 -38 34 -106 90 -150 123 -136 103 -286
227 -369 305 -44 40 -114 97 -155 125 -86 57 -156 126 -206 199 -36 55 -50 66
-123 103 -63 31 -150 49 -372 75 -138 16 -627 103 -636 113 -1 1 4 36 12 77
17 98 17 248 0 330 -41 191 -174 332 -341 358 -106 17 -318 -14 -469 -69 -45
-16 -82 -25 -84 -20 -14 41 -164 168 -276 233 -39 23 -72 43 -74 44 -2 1 12
17 30 35 38 38 131 153 174 215 16 22 57 79 92 125 116 156 133 181 167 248
18 37 39 72 47 78 7 6 64 13 126 17 160 9 192 25 263 126 21 30 54 73 73 95
20 21 49 67 65 102 17 35 57 109 89 166 52 91 78 153 167 382 44 116 58 195
53 312 -8 180 -76 345 -148 360 -17 3 -33 9 -36 14 -4 8 30 159 38 162 37 19
46 33 75 118 22 63 33 113 33 153 0 32 5 87 11 121 14 71 7 111 -19 119 -14 5
-22 24 -30 70 -13 67 -15 103 -7 94 3 -2 9 -29 15 -58 17 -91 57 -128 81 -76
17 37 -6 160 -43 224 -16 29 -68 93 -114 143 -127 136 -131 142 -137 230 -3
41 -12 92 -21 113 -13 31 -14 45 -4 81 9 34 9 59 -1 112 -16 89 -100 275 -177
389 -45 67 -63 104 -67 139 -10 69 -61 157 -127 218 -58 52 -175 137 -237 170
-18 9 -33 22 -33 27 0 18 39 30 93 30 34 0 59 5 66 14 23 28 -15 38 -174 47
-219 12 -329 40 -390 99 -16 16 -67 45 -113 64 -104 43 -139 70 -199 151 -94
125 -163 150 -417 150 -175 0 -177 0 -140 17 22 9 80 27 129 39 50 13 94 26
100 31 14 12 -73 8 -145 -8z m1748 -1551 c6 -18 9 -33 7 -33 -7 0 -35 58 -35
72 0 19 16 -3 28 -39z m-5028 -568 c-7 -8 -16 -12 -21 -9 -13 8 -1 24 18 24
13 0 13 -3 3 -15z m3504 -98 c4 -21 4 -48 0 -60 -7 -21 -8 -20 -15 8 -10 45
-10 123 0 105 5 -8 12 -32 15 -53z m9 -337 c34 -74 131 -197 192 -244 94 -71
257 -116 423 -116 69 0 88 -4 141 -30 33 -17 97 -40 141 -53 l80 -22 0 -70 0
-71 -50 -37 c-85 -63 -94 -117 -20 -117 33 0 48 7 84 40 24 22 49 54 56 70 7
17 16 30 19 30 4 0 16 8 27 18 10 9 46 40 78 67 l59 50 -7 -40 c-8 -43 -12
-49 -64 -108 -40 -46 -41 -84 -3 -79 36 4 57 27 98 104 20 38 38 67 40 65 2
-3 -17 -112 -42 -243 -26 -132 -57 -295 -70 -364 -13 -69 -40 -208 -60 -310
-40 -206 -82 -426 -115 -600 -12 -63 -30 -131 -40 -150 -30 -58 -102 -163
-152 -221 -26 -29 -94 -111 -150 -180 -206 -251 -238 -286 -316 -348 -145
-113 -276 -188 -493 -280 -53 -23 -103 -41 -112 -41 -8 0 -53 -13 -98 -29
-256 -88 -562 -94 -834 -16 -206 60 -313 105 -580 247 -44 24 -101 52 -125 62
-59 26 -148 78 -180 106 -14 12 -41 34 -60 49 -19 14 -55 44 -80 67 -157 143
-192 175 -255 239 -179 182 -286 331 -303 420 -57 307 -75 400 -87 460 -8 39
-17 88 -19 110 -2 23 -11 68 -19 100 -9 33 -30 134 -47 225 -17 91 -49 259
-71 374 -22 114 -37 212 -32 216 4 3 43 35 86 70 88 70 209 206 247 276 20 36
35 50 73 67 l49 20 34 -36 c86 -91 179 -144 301 -173 97 -23 364 -14 528 18
110 22 131 23 250 14 139 -10 314 2 430 29 33 8 101 14 151 14 109 0 236 27
362 78 48 19 102 36 121 38 93 10 267 133 342 244 19 28 36 51 39 51 3 0 17
-27 33 -60z m-3577 -158 c-6 -5 -36 78 -35 96 0 9 9 -8 19 -38 10 -30 17 -56
16 -58z m3179 -62 c-3 -5 -11 -10 -16 -10 -6 0 -7 5 -4 10 3 6 11 10 16 10 6
0 7 -4 4 -10z m-1400 -120 c27 -11 10 -16 -88 -30 -114 -15 -121 -12 -37 14
84 26 97 28 125 16z m-1553 -388 c36 -23 80 -61 99 -85 18 -23 54 -64 80 -92
58 -63 85 -115 104 -205 23 -109 24 -109 -63 0 -57 72 -165 180 -194 196 -39
20 -91 17 -122 -7 -52 -41 -68 -102 -45 -181 15 -55 26 -46 21 15 -7 85 37
147 93 133 25 -6 124 -108 160 -167 14 -20 37 -52 53 -71 29 -32 142 -210 142
-222 0 -3 -11 -6 -24 -6 -54 0 -85 -21 -141 -95 -49 -65 -39 -143 31 -235 51
-67 98 -98 170 -112 32 -7 61 -13 63 -14 5 -4 30 -128 26 -133 -8 -7 -101 20
-175 51 -265 112 -432 333 -520 686 -71 287 -75 354 -29 477 37 99 60 117 150
112 47 -3 68 -10 121 -45z m5083 20 c45 -33 75 -150 75 -297 0 -60 -5 -130
-11 -153 -20 -90 -141 -392 -190 -478 -28 -49 -69 -123 -90 -164 -21 -42 -55
-96 -77 -120 -21 -25 -53 -67 -71 -93 -18 -27 -43 -52 -54 -57 -27 -10 -199
-32 -205 -25 -7 7 20 155 28 160 5 3 24 -2 44 -10 85 -36 203 1 258 80 57 83
91 227 74 316 -12 66 -82 119 -156 119 -38 0 -42 3 -57 38 -24 56 -27 122 -9
183 13 46 25 64 79 111 35 31 101 80 146 108 131 84 71 94 -79 13 -36 -19 -78
-47 -95 -61 -26 -21 -30 -23 -33 -8 -2 9 1 40 7 69 10 46 20 60 87 124 80 76
130 105 229 134 68 20 86 22 100 11z m-520 -902 c-9 -18 -18 -30 -20 -28 -2 1
4 39 13 83 l17 80 3 -52 c2 -34 -3 -63 -13 -83z m-4234 83 c15 -9 31 -24 35
-32 15 -36 42 -197 35 -204 -12 -12 -81 19 -114 51 -40 38 -70 98 -61 125 7
25 53 77 67 77 5 0 22 -8 38 -17z m4398 -4 c38 -13 46 -39 38 -120 -13 -122
-79 -209 -158 -209 -60 0 -66 20 -25 78 43 60 96 181 96 220 0 24 7 42 15 42
1 0 16 -5 34 -11z m-789 -1441 c14 -13 41 -35 60 -50 60 -46 141 -128 136
-137 -3 -5 1 -8 10 -7 9 0 21 -8 28 -19 6 -11 16 -23 21 -28 6 -4 0 -10 -12
-13 -13 -4 -23 -10 -23 -15 0 -5 -5 -9 -11 -9 -15 0 -59 52 -53 62 3 4 -3 5
-12 1 -14 -5 -16 -2 -11 16 4 18 3 20 -9 10 -11 -9 -15 -8 -20 5 -3 9 -10 14
-14 11 -5 -3 -12 0 -17 7 -4 7 -24 22 -43 32 -19 11 -38 24 -42 30 -4 6 -11
11 -15 11 -20 1 -73 37 -68 46 4 6 -4 8 -19 5 -14 -3 -26 0 -26 6 0 5 7 8 15
4 8 -3 15 -1 15 4 0 6 3 9 8 9 4 -1 14 -1 22 0 11 1 11 4 2 13 -9 9 -8 16 6
29 19 18 32 14 72 -23z m-3380 -63 c85 -35 112 -52 246 -152 86 -64 227 -209
310 -320 249 -329 426 -765 475 -1167 16 -133 6 -366 -20 -471 -20 -82 -49
-160 -56 -153 -3 2 -9 49 -16 104 -6 54 -22 140 -34 189 -78 300 -108 402
-150 505 -26 63 -61 153 -77 200 -16 47 -54 128 -83 181 -30 53 -64 118 -75
144 -11 26 -44 89 -74 139 -29 50 -69 120 -89 156 -19 36 -54 85 -77 110 -22
25 -65 81 -94 125 -30 44 -71 98 -91 120 -20 22 -54 63 -75 90 -57 76 -194
204 -232 217 -33 12 -33 12 -8 20 44 13 132 -2 220 -37z m700 34 c0 -5 3 -8 8
-6 4 3 20 -5 36 -18 l29 -23 -36 -7 c-20 -4 -37 -11 -37 -17 0 -5 -6 -8 -12
-6 -7 1 -23 -3 -35 -10 -19 -10 -23 -10 -24 0 0 7 -5 2 -10 -12 -7 -18 -12
-21 -18 -11 -6 9 -10 6 -15 -11 -5 -19 -8 -20 -16 -8 -8 13 -10 12 -11 -5 -1
-14 -4 -10 -9 10 -7 28 -8 28 -9 5 -1 -14 -6 -32 -11 -40 -7 -11 -10 -6 -11
20 -1 35 -1 34 -11 -10 -9 -37 -12 -41 -19 -25 -7 19 -8 18 -8 -4 -1 -16 -5
-21 -16 -17 -10 3 -16 -1 -16 -12 -1 -9 -5 1 -9 23 l-7 40 -2 -37 c-1 -35 -21
-56 -21 -23 0 8 -7 15 -15 15 -21 0 -39 36 -20 43 8 4 16 -1 18 -11 3 -12 5
-11 6 6 1 12 7 22 16 22 8 0 15 6 16 13 0 6 4 3 9 -8 8 -19 9 -19 9 3 1 12 7
22 15 22 8 0 17 6 20 13 5 9 7 9 12 0 4 -8 13 -4 30 14 l24 26 1 -24 2 -24 4
24 c3 13 13 26 24 28 10 3 19 10 19 15 0 6 7 8 15 4 8 -3 15 -2 15 3 0 9 38
29 58 30 6 1 12 -4 12 -10z m-929 -60 c21 -10 44 -28 52 -39 8 -11 32 -40 54
-63 22 -23 57 -67 78 -97 22 -30 60 -80 85 -110 45 -54 100 -134 100 -145 0
-3 30 -43 66 -87 36 -45 78 -107 94 -139 15 -32 47 -90 70 -129 23 -40 58
-106 77 -148 19 -43 50 -102 68 -132 18 -30 44 -84 58 -120 14 -36 54 -141 90
-235 44 -113 86 -249 126 -405 51 -201 61 -255 69 -375 l9 -140 -26 -23 c-39
-33 -106 -62 -169 -73 -270 -43 -650 241 -920 688 -211 350 -335 743 -349
1109 -13 328 61 550 221 666 46 33 79 32 147 -3z m3464 -9 c0 -8 -5 -15 -12
-15 -6 0 -15 -4 -20 -9 -5 -5 -3 -6 5 -2 13 8 17 -10 4 -18 -17 -10 -34 12
-27 35 7 23 7 24 -9 4 -8 -11 -16 -15 -16 -9 0 19 25 35 50 32 14 -2 25 -9 25
-18z m60 -30 c-3 -6 1 -7 9 -4 9 3 16 1 16 -4 0 -6 12 -17 28 -24 15 -8 26
-21 26 -31 -2 -14 1 -15 12 -6 11 9 15 8 20 -5 3 -9 10 -16 16 -16 14 0 38
-27 38 -42 0 -22 -26 -52 -39 -44 -8 5 -8 13 0 29 10 22 10 22 -7 2 -11 -14
-18 -16 -21 -7 -3 6 -12 12 -20 12 -12 0 -14 7 -8 28 6 26 6 26 -10 7 -16 -20
-16 -19 -9 5 6 24 5 24 -9 6 -13 -17 -16 -18 -30 -5 -34 30 -46 39 -56 39 -18
0 -21 32 -6 61 13 25 19 28 36 19 11 -6 17 -15 14 -20z m-2437 4 c21 -14 22
-41 1 -29 -5 4 -9 1 -9 -4 0 -6 -6 -11 -14 -11 -7 0 -26 -7 -42 -15 -22 -11
-30 -12 -36 -2 -5 8 -8 6 -8 -7 0 -11 -5 -16 -14 -13 -8 3 -17 -1 -20 -9 -7
-18 -26 -18 -26 0 0 8 -4 17 -9 20 -4 3 -6 -7 -4 -22 4 -21 2 -24 -6 -12 -9
13 -11 13 -11 -2 0 -20 -20 -25 -21 -5 0 6 -4 3 -9 -8 -6 -13 -9 -15 -9 -5 -1
8 -4 26 -7 40 -4 20 -3 22 5 10 10 -13 11 -13 11 0 0 8 11 20 25 27 21 9 27 8
36 -5 9 -14 10 -14 6 -1 -5 17 28 43 43 34 6 -4 10 -2 10 3 0 8 49 28 75 31 6
1 21 -6 33 -15z m2281 -31 c11 10 12 7 7 -13 -3 -14 -3 -19 0 -12 3 6 10 12
16 12 12 0 8 -18 -16 -73 -10 -23 -12 -36 -5 -32 8 5 9 0 5 -16 -3 -13 -3 -18
0 -10 5 11 8 11 15 0 7 -12 9 -11 9 1 0 13 2 13 11 0 10 -13 10 -13 6 0 -3 8
-9 24 -13 34 -5 14 -4 17 4 12 13 -8 17 6 5 18 -4 3 -13 -4 -20 -16 -18 -33
-16 -3 2 32 16 31 29 41 19 15 -3 -8 2 -24 11 -37 l17 -23 -7 25 -8 24 29 -19
c33 -22 46 -32 79 -63 14 -13 25 -19 25 -15 0 4 11 -4 24 -19 12 -15 26 -25
29 -21 4 3 9 -2 13 -11 7 -18 -9 -41 -38 -57 -19 -10 -19 -9 -2 23 22 43 6 28
-21 -20 -11 -20 -25 -37 -30 -37 -6 0 -23 -13 -38 -29 -26 -26 -32 -27 -85
-22 -84 8 -83 7 -77 30 5 17 3 16 -9 -4 -9 -14 -15 -20 -16 -15 0 12 40 118
47 125 6 5 -1 -31 -13 -67 -5 -15 -4 -15 5 -3 9 13 11 13 11 0 1 -13 2 -13 9
0 5 8 12 26 15 40 6 20 5 22 -4 10 -9 -12 -10 -10 -6 12 3 14 9 34 12 45 4 13
3 15 -4 4 -8 -11 -10 -11 -14 0 -2 7 -20 -29 -39 -79 -19 -51 -37 -92 -41 -92
-15 0 -8 25 32 115 45 100 51 122 15 55 -34 -63 -30 -29 5 55 17 38 30 72 30
75 -1 12 -26 -41 -57 -119 -33 -84 -45 -134 -18 -76 7 17 14 25 14 19 1 -6
-10 -36 -24 -65 -14 -30 -22 -43 -19 -29 4 14 8 59 9 100 1 41 5 82 9 91 4 10
3 20 -3 24 -22 13 -10 85 14 85 7 0 18 7 26 16 12 14 14 14 24 0 9 -12 14 -13
24 -3z m1089 -25 c23 -6 45 -15 48 -19 4 -8 -133 -77 -187 -94 -11 -4 -46 -22
-77 -40 -32 -18 -102 -58 -157 -89 -165 -94 -257 -153 -310 -199 -27 -24 -70
-57 -95 -74 -83 -56 -329 -336 -433 -491 -217 -325 -313 -501 -407 -747 -87
-229 -140 -430 -140 -535 0 -27 -4 -50 -10 -50 -15 0 -71 87 -93 148 -19 49
-22 78 -22 207 1 129 5 165 28 257 102 407 385 857 771 1225 83 80 113 102
139 105 26 2 33 8 35 28 8 60 357 272 562 341 140 46 242 54 348 27z m-3198
-40 c233 -133 515 -236 742 -272 127 -21 351 -21 443 0 39 8 95 19 125 24 30
5 82 18 115 30 33 12 84 28 113 36 65 17 185 69 315 135 l99 50 -8 -143 c-9
-152 -9 -208 -1 -273 3 -22 6 -48 6 -57 1 -9 8 -18 16 -20 11 -2 1 -18 -33
-53 -330 -345 -567 -743 -663 -1113 -16 -62 -29 -122 -29 -132 0 -20 -53 -50
-345 -200 -179 -91 -181 -92 -283 -45 -31 14 -124 65 -205 113 -81 48 -167 98
-190 112 -24 14 -61 38 -84 55 l-40 29 -6 151 c-12 291 -93 584 -253 914 -42
85 -72 157 -67 160 4 4 33 28 65 54 31 26 59 47 62 47 3 0 6 -42 6 -94 0 -97
12 -130 38 -104 26 26 8 521 -23 619 -9 27 1 24 85 -23z m-420 -25 c0 -25 -16
-39 -23 -21 -3 8 -6 5 -6 -5 -1 -10 -7 -17 -13 -15 -17 6 -23 47 -9 61 8 8 11
7 12 -3 0 -8 5 -4 10 10 8 20 12 22 19 10 5 -8 10 -25 10 -37z m283 -10 c8
-94 7 -130 -2 -113 -12 22 -24 78 -13 62 6 -9 9 -4 8 17 -1 38 -4 38 -17 4
-12 -32 18 -144 32 -121 7 10 9 9 9 -4 0 -31 -27 -19 -35 15 l-7 32 -12 -40
-12 -40 0 60 c0 41 2 52 7 35 9 -31 11 -4 2 30 -6 21 -10 15 -30 -45 -21 -65
-23 -67 -18 -25 l4 45 -13 -45 c-10 -32 -14 -38 -15 -21 -1 13 -4 22 -7 18 -4
-3 -3 -18 0 -34 6 -21 9 -24 17 -12 7 12 9 11 9 -3 0 -20 -30 -25 -31 -5 0 6
-5 1 -11 -13 l-11 -25 -7 25 c-8 24 -8 24 -9 3 -1 -27 -20 -31 -22 -5 -1 14
-2 13 -7 -3 l-5 -20 -8 20 c-7 18 -8 17 -8 -7 -1 -30 -21 -49 -22 -21 0 16 -1
16 -8 -1 -7 -18 -9 -17 -21 11 -8 18 -18 29 -22 27 -4 -3 -8 4 -8 16 0 12 -4
18 -10 15 -5 -3 -10 1 -10 10 0 9 -4 14 -9 11 -5 -3 -12 1 -15 10 -9 24 -7 52
4 59 6 4 8 -7 5 -27 -4 -29 -4 -30 4 -8 l9 25 2 -25 c1 -21 4 -18 14 15 8 26
14 35 18 25 5 -10 7 -8 7 8 1 30 15 28 28 -5 11 -27 11 -27 7 7 -3 28 -2 31 5
15 9 -19 10 -19 10 3 1 12 6 23 11 23 11 2 25 5 38 9 4 1 10 2 15 1 4 0 7 3 7
8 0 13 86 34 102 25 7 -4 10 -4 6 1 -7 7 19 34 34 35 3 0 8 -26 11 -57z m-351
-8 c2 -19 2 -32 -1 -29 -3 3 -11 -10 -17 -28 -7 -19 -13 -25 -13 -15 -1 11 -6
15 -12 11 -8 -4 -9 4 -4 27 9 43 14 51 26 44 5 -4 9 1 9 9 0 29 8 16 12 -19z
m3861 -22 c86 -83 121 -188 120 -358 -1 -60 -9 -146 -18 -190 -56 -273 -214
-599 -426 -881 -99 -132 -132 -170 -272 -313 -281 -286 -574 -477 -867 -566
-74 -23 -260 -30 -325 -13 l-50 13 4 100 c9 265 176 710 398 1059 48 76 105
165 126 198 44 72 95 137 184 236 36 40 83 95 106 123 120 152 683 525 927
615 50 18 52 18 93 -23z m-3917 2 c-6 -18 -26 -11 -26 8 0 7 4 6 10 -3 8 -13
10 -12 10 4 0 11 3 17 6 13 4 -3 4 -13 0 -22z m3014 -31 c0 -7 -5 -16 -11 -20
-8 -4 -9 1 -5 17 6 21 5 21 -9 -4 -9 -15 -20 -25 -25 -22 -14 9 -12 22 7 51
16 25 17 25 30 8 7 -10 13 -23 13 -30z m-2913 -26 c-3 -8 -6 -5 -6 6 -1 11 2
17 5 13 3 -3 4 -12 1 -19z m2550 -20 c-3 -8 -6 -5 -6 6 -1 11 2 17 5 13 3 -3
4 -12 1 -19z m-2307 -63 c-16 -41 -21 -25 -7 20 6 22 13 33 15 24 1 -9 -2 -28
-8 -44z m2307 3 c-3 -8 -6 -5 -6 6 -1 11 2 17 5 13 3 -3 4 -12 1 -19z m-2229
-100 c-2 -26 -15 -42 -63 -81 -94 -76 -89 -75 -130 -12 -19 30 -35 60 -35 65
0 9 23 17 135 43 93 23 97 22 93 -15z m2210 -34 c23 -4 42 -10 42 -14 0 -3
-11 -17 -25 -30 -22 -20 -29 -22 -43 -12 -9 7 -28 18 -42 25 -22 11 -26 19
-21 43 0 3 11 4 24 1 12 -4 41 -9 65 -13z m-65 -91 c14 -17 13 -19 -7 -35 -22
-16 -23 -16 -23 18 0 38 7 42 30 17z m-1888 -1372 c96 -94 398 -280 526 -325
l76 -27 174 87 c96 48 199 102 230 120 81 49 89 47 89 -26 l0 -60 -52 -26
c-29 -15 -107 -63 -173 -109 -152 -104 -180 -118 -213 -110 -15 4 -94 33 -177
64 -82 32 -184 66 -226 75 -79 17 -127 43 -223 118 -30 24 -64 50 -76 58 -21
15 -21 17 -9 103 7 48 15 87 18 87 3 0 19 -13 36 -29z"/>
<path d="M4940 7054 c-50 -11 -150 -43 -187 -62 -46 -24 -84 -62 -62 -62 8 0
19 4 25 8 14 13 89 38 178 62 100 25 198 25 304 0 101 -24 108 -25 92 -5 -32
38 -261 77 -350 59z"/>
<path d="M6785 7043 c-121 -27 -195 -56 -181 -71 3 -2 48 6 101 18 161 38 289
21 498 -65 27 -11 20 12 -10 33 -98 67 -300 109 -408 85z"/>
<path d="M4990 6924 c-82 -16 -193 -51 -245 -77 -68 -34 -205 -160 -205 -189
0 -26 11 -23 56 15 130 110 286 173 474 192 78 8 194 -14 272 -50 29 -14 63
-25 76 -25 64 0 -32 85 -131 116 -51 16 -246 28 -297 18z"/>
<path d="M6662 6905 c-78 -17 -141 -47 -176 -82 -52 -52 -22 -57 86 -14 92 37
195 54 273 46 167 -18 349 -90 442 -175 60 -55 73 -60 73 -30 0 32 -127 151
-200 187 -147 71 -358 100 -498 68z"/>
<path d="M5030 6800 c-94 -9 -137 -25 -194 -73 -32 -26 -49 -50 -56 -78 -21
-78 10 -128 105 -170 l50 -22 -39 -11 c-22 -6 -41 -17 -44 -25 -3 -9 0 -12 10
-9 7 3 56 11 108 18 52 6 140 18 195 25 55 8 133 17 173 20 85 8 96 25 16 25
l-57 0 27 21 c77 60 74 160 -7 222 -64 49 -163 68 -287 57z"/>
<path d="M6760 6794 c-154 -24 -251 -115 -220 -209 15 -45 51 -81 110 -108 31
-14 40 -21 28 -24 -10 -3 -18 -9 -18 -14 0 -5 86 -9 208 -8 178 0 202 2 172
13 l-34 13 49 24 c56 28 85 69 85 122 0 95 -105 171 -259 188 -47 5 -88 8 -91
7 -3 0 -16 -2 -30 -4z"/>
<path d="M5893 6287 c-29 -33 -73 -95 -135 -190 -44 -67 -108 -200 -114 -238
-8 -50 22 -84 87 -98 57 -12 281 -13 411 -2 72 6 91 12 107 29 18 21 18 25 1
95 -21 90 -50 144 -185 343 -58 85 -62 89 -101 92 -36 3 -45 -1 -71 -31z"/>
<path d="M6630 6312 c0 -12 159 -60 210 -64 61 -4 260 12 260 21 0 13 -101 32
-220 41 -143 12 -250 12 -250 2z"/>
<path d="M5081 6270 c-119 -13 -161 -21 -161 -30 0 -13 82 -23 185 -24 83 -1
200 22 280 54 25 11 -203 10 -304 0z"/>
<path d="M6746 5424 c-14 -15 -26 -30 -26 -34 0 -9 -53 -18 -165 -26 -61 -5
-118 0 -242 20 -189 30 -369 34 -558 11 -66 -8 -196 -15 -289 -15 -162 0 -171
1 -222 26 -58 28 -84 26 -84 -5 0 -26 45 -60 70 -54 11 3 68 -2 126 -12 82
-13 138 -16 252 -11 485 20 506 19 697 -9 212 -32 271 -29 361 15 34 16 72 30
86 30 46 0 89 70 52 84 -25 9 -30 8 -58 -20z"/>
<path d="M5550 5088 c0 -14 44 -42 105 -66 31 -13 78 -17 215 -17 96 0 218 -4
270 -9 78 -7 106 -6 152 8 56 16 119 58 107 71 -4 3 -40 -4 -79 -16 -66 -20
-83 -21 -174 -13 -56 5 -184 9 -286 9 -169 0 -190 2 -240 22 -64 27 -70 27
-70 11z"/>
<path d="M4592 4400 c0 -14 2 -19 5 -12 2 6 2 18 0 25 -3 6 -5 1 -5 -13z"/>
<path d="M4562 4380 c0 -19 2 -27 5 -17 2 9 2 25 0 35 -3 9 -5 1 -5 -18z"/>
<path d="M4511 4364 c0 -11 3 -14 6 -6 3 7 2 16 -1 19 -3 4 -6 -2 -5 -13z"/>
<path d="M3678 4000 c-18 -11 -24 -41 -12 -53 3 -3 14 -1 24 5 40 25 205 -45
267 -113 70 -78 236 -390 352 -661 128 -303 221 -600 229 -733 4 -71 2 -83
-18 -107 -27 -35 -60 -36 -127 -3 -101 51 -209 193 -332 440 -206 412 -264
577 -335 952 -25 128 -25 158 -2 176 7 5 5 7 -4 5 -8 -3 -21 -16 -28 -30 -10
-22 -8 -54 13 -195 48 -323 149 -610 352 -1008 162 -317 369 -484 482 -389 65
54 65 165 2 389 -61 212 -166 491 -265 700 -13 28 -54 112 -90 189 -76 160
-178 310 -241 355 -93 67 -225 107 -267 81z"/>
<path d="M4741 4354 c0 -11 3 -14 6 -6 3 7 2 16 -1 19 -3 4 -6 -2 -5 -13z"/>
<path d="M7192 4335 c-17 -37 -14 -45 4 -12 9 16 14 31 11 33 -2 2 -9 -7 -15
-21z"/>
<path d="M7150 4335 c0 -5 5 -17 10 -25 5 -8 10 -10 10 -5 0 6 -5 17 -10 25
-5 8 -10 11 -10 5z"/>
<path d="M7325 4289 c-4 -6 -5 -12 -2 -15 2 -3 7 2 10 11 7 17 1 20 -8 4z"/>
<path d="M7162 4265 c-17 -37 -14 -45 4 -12 9 16 14 31 11 33 -2 2 -9 -7 -15
-21z"/>
<path d="M7336 4245 c-9 -26 -7 -32 5 -12 6 10 9 21 6 23 -2 3 -7 -2 -11 -11z"/>
<path d="M7356 4173 c-6 -14 -5 -15 5 -6 7 7 10 15 7 18 -3 3 -9 -2 -12 -12z"/>
<path d="M7365 4129 c-4 -6 -5 -12 -2 -15 2 -3 7 2 10 11 7 17 1 20 -8 4z"/>
<path d="M5580 3683 c0 -22 107 -218 134 -243 32 -32 46 -37 46 -17 0 17 -116
216 -142 244 -22 23 -38 30 -38 16z"/>
<path d="M6543 3648 c-31 -34 -83 -143 -92 -194 l-9 -45 26 23 c20 18 122 214
122 233 0 13 -29 2 -47 -17z"/>
<path d="M4691 4324 c0 -11 3 -14 6 -6 3 7 2 16 -1 19 -3 4 -6 -2 -5 -13z"/>
<path d="M4925 4300 c3 -5 2 -10 -4 -10 -6 0 -7 -7 -4 -17 4 -11 3 -14 -5 -9
-7 4 -12 3 -12 -3 0 -5 -3 -18 -6 -28 -5 -15 -4 -15 5 -3 9 13 11 13 12 0 0
-8 7 5 15 30 17 54 16 50 3 50 -5 0 -7 -4 -4 -10z"/>
<path d="M4821 4264 c0 -11 3 -14 6 -6 3 7 2 16 -1 19 -3 4 -6 -2 -5 -13z"/>
<path d="M4871 4254 c0 -11 3 -14 6 -6 3 7 2 16 -1 19 -3 4 -6 -2 -5 -13z"/>
<path d="M4812 4230 c0 -8 3 -26 7 -40 7 -24 7 -24 14 9 4 19 5 36 2 39 -3 3
-5 -3 -6 -14 0 -18 -1 -18 -9 1 -5 12 -8 14 -8 5z"/>
<path d="M4861 4214 c0 -11 3 -14 6 -6 3 7 2 16 -1 19 -3 4 -6 -2 -5 -13z"/>
<path d="M4782 4200 c0 -14 2 -19 5 -12 2 6 2 18 0 25 -3 6 -5 1 -5 -13z"/>
<path d="M4731 4198 c0 -7 4 -22 9 -33 8 -18 9 -17 9 7 1 15 -3 30 -9 33 -5 3
-10 0 -9 -7z"/>
<path d="M4881 4194 c0 -11 3 -14 6 -6 3 7 2 16 -1 19 -3 4 -6 -2 -5 -13z"/>
<path d="M4702 4175 c0 -16 2 -22 5 -12 2 9 2 23 0 30 -3 6 -5 -1 -5 -18z"/>
<path d="M4795 4170 c-4 -17 -5 -34 -2 -36 2 -3 7 10 11 27 8 42 0 50 -9 9z"/>
<path d="M4721 4154 c0 -11 3 -14 6 -6 3 7 2 16 -1 19 -3 4 -6 -2 -5 -13z"/>
<path d="M4771 4154 c0 -11 3 -14 6 -6 3 7 2 16 -1 19 -3 4 -6 -2 -5 -13z"/>
<path d="M4812 4140 c0 -14 2 -19 5 -12 2 6 2 18 0 25 -3 6 -5 1 -5 -13z"/>
<path d="M4841 4144 c0 -11 3 -14 6 -6 3 7 2 16 -1 19 -3 4 -6 -2 -5 -13z"/>
<path d="M4761 4114 c0 -11 3 -14 6 -6 3 7 2 16 -1 19 -3 4 -6 -2 -5 -13z"/>
<path d="M4731 4094 c0 -11 3 -14 6 -6 3 7 2 16 -1 19 -3 4 -6 -2 -5 -13z"/>
<path d="M4612 4270 c0 -14 2 -19 5 -12 2 6 2 18 0 25 -3 6 -5 1 -5 -13z"/>
<path d="M8140 3769 c-191 -61 -291 -131 -515 -360 -169 -173 -270 -296 -367
-443 -189 -289 -275 -547 -211 -634 76 -103 235 -95 443 23 319 181 579 437
824 813 108 165 165 303 173 418 5 67 2 88 -15 127 -41 93 -155 113 -332 56z
m256 -52 c23 -20 28 -34 32 -83 12 -165 -178 -496 -466 -814 -239 -264 -569
-483 -749 -498 -61 -5 -63 -4 -98 31 -46 46 -46 84 1 224 60 180 181 389 345
593 120 151 410 440 440 440 13 0 56 16 94 36 176 91 344 120 401 71z"/>
<path d="M6565 9883 c-65 -14 -150 -48 -175 -70 -31 -26 -39 -57 -17 -66 9 -3
13 3 13 17 -2 41 160 96 284 96 69 0 226 -33 287 -60 57 -25 65 -25 33 1 -43
34 -93 56 -167 73 -66 15 -210 20 -258 9z"/>
<path d="M7496 8948 c-4 -12 -26 -149 -26 -162 0 -19 -26 3 -85 72 -38 42 -75
79 -84 80 -10 3 -5 -8 15 -30 16 -18 47 -55 68 -81 21 -26 49 -55 62 -64 23
-15 26 -14 39 3 8 10 18 42 23 69 4 28 13 49 18 48 15 -3 2 69 -14 75 -6 2
-14 -2 -16 -10z"/>
<path d="M4359 8638 c-36 -48 -75 -131 -109 -228 -30 -86 -40 -261 -17 -284
25 -25 34 -20 74 42 l38 57 5 -110 c5 -118 25 -173 57 -161 8 3 17 6 20 6 3 0
-5 9 -18 19 -23 18 -24 27 -29 152 -6 164 -16 173 -80 75 -23 -36 -47 -63 -52
-60 -7 4 -9 43 -5 103 7 131 64 296 134 389 14 18 23 36 20 39 -3 2 -20 -15
-38 -39z"/>
<path d="M7908 8383 c-10 -9 -29 -51 -44 -92 -15 -42 -31 -80 -35 -85 -15 -17
-32 41 -33 109 -1 57 -4 70 -18 73 -14 3 -18 -8 -24 -58 -5 -44 -14 -70 -31
-91 -36 -42 -187 -111 -191 -87 -1 4 8 28 19 53 23 51 41 145 28 145 -5 0 -11
-12 -15 -27 -13 -60 -33 -113 -58 -149 -14 -21 -23 -41 -20 -46 9 -15 93 -8
147 12 29 11 72 36 95 55 40 35 41 35 47 13 10 -33 35 -58 57 -58 20 0 31 21
68 128 19 52 25 60 37 50 12 -10 14 -6 11 27 -3 44 -16 53 -40 28z"/>
<path d="M5130 8020 c0 -21 8 -55 17 -75 24 -51 59 -46 92 14 l24 44 23 -51
c28 -63 63 -89 96 -71 22 13 22 13 3 17 -31 6 -49 27 -80 92 -31 66 -50 75
-66 33 -30 -75 -40 -93 -53 -93 -17 0 -37 46 -39 93 -3 50 -17 47 -17 -3z"/>
<path d="M8901 4037 c-1 -9 6 -44 16 -77 18 -66 39 -83 28 -22 -8 46 -43 124
-44 99z"/>
<path d="M8815 3985 c-31 -25 -28 -33 7 -14 28 15 31 7 14 -36 -18 -43 -20
-65 -6 -65 6 0 10 9 10 21 0 18 4 20 30 14 34 -7 42 10 10 20 -16 5 -19 12
-14 28 18 58 -3 72 -51 32z"/>
<path d="M8960 3843 c-31 -26 -33 -26 -46 -8 -10 14 -14 15 -14 4 0 -27 17
-41 39 -34 28 8 27 -9 -1 -28 -13 -8 -20 -18 -17 -21 3 -4 33 9 65 29 32 19
65 38 73 43 28 16 -5 21 -37 5 -36 -17 -57 -9 -29 11 9 7 17 16 17 20 0 13
-20 5 -50 -21z"/>
<path d="M9015 3768 c-50 -28 -55 -87 -8 -88 20 0 73 51 73 70 0 28 -32 37
-65 18z m21 -45 c-30 -26 -46 -29 -46 -10 0 16 51 47 64 40 5 -4 -3 -17 -18
-30z"/>
</g>
</svg>
